%
M48
M72
T01C0.01000
T02C0.04000
%
T01
X90297Y112651
X189588Y86037
X166045Y85013
X98486Y304068
X92344Y300997
X33998Y239580
X27856Y200682
X242817Y305092
X246911Y295879
X221321Y243674
X203919Y229344
X203919Y225249
X311399Y236509
X312423Y199659
T02
X269018Y201032
X259018Y201032
X215671Y287449
X205671Y287449
X141729Y289927
X141729Y272127
X139559Y252897
X139559Y242897
X129559Y242897
X129559Y252897
X119559Y252897
X119559Y242897
X116129Y272127
X116129Y289927
M30
