%
M48
M72
T01C0.01300
T02C0.04000
%
T01
X219289Y106923
X251689Y117723
X197689Y140523
X165889Y108723
X93889Y304323
X76489Y286923
X79489Y169923
X240289Y276123
X243289Y269523
X219289Y234723
X203089Y232923
X313489Y202923
X313489Y199323
T02
X141729Y289927
X141729Y272127
X139559Y252897
X139559Y242897
X129559Y242897
X129559Y252897
X119559Y252897
X119559Y242897
X116129Y272127
X116129Y289927
X189362Y284806
X199362Y284806
X209362Y284806
X219362Y284806
M30
