%
M48
M72
T01C0.01300
T02C0.04000
%
T01
X95703Y90569
X95703Y96531
X250721Y90569
X251714Y96531
X308355Y188945
X234822Y241611
X221903Y243599
X203023Y227700
X166256Y190933
X234822Y308189
X160294Y238630
T02
X116129Y272127
X116129Y289927
X141729Y289927
X141729Y272127
X139559Y252897
X139559Y242897
X129559Y242897
X129559Y252897
X119559Y252897
X119559Y242897
X205671Y287449
X215671Y287449
X259018Y201032
X269018Y201032
M30
