G75*
%MOIN*%
%OFA0B0*%
%FSLAX25Y25*%
%IPPOS*%
%LPD*%
%AMOC8*
5,1,8,0,0,1.08239X$1,22.5*
%
%ADD10C,0.01000*%
%ADD11OC8,0.06000*%
%ADD12R,0.08000X0.12500*%
%ADD13C,0.31496*%
%ADD14C,0.06000*%
%ADD15C,0.00600*%
%ADD16OC8,0.02300*%
D10*
X0128781Y0013704D02*
X0125829Y0017395D01*
X0124106Y0022562D01*
X0123614Y0028714D01*
X0123860Y0033635D01*
X0124352Y0038064D01*
X0125090Y0042739D01*
X0126075Y0046184D01*
X0125336Y0046184D01*
X0145268Y0025269D02*
X0147482Y0026991D01*
X0149943Y0028468D01*
X0153388Y0030190D01*
X0155848Y0031174D01*
X0159293Y0033389D01*
X0162246Y0035604D01*
X0164214Y0037818D01*
X0165445Y0039787D01*
X0145268Y0025269D02*
X0142807Y0022316D01*
X0141085Y0019363D01*
X0139116Y0015919D01*
X0137394Y0014196D01*
X0135671Y0012966D01*
X0133210Y0012228D01*
X0130996Y0012720D01*
X0128781Y0013704D01*
X0190789Y0041263D02*
X0193004Y0040033D01*
X0195957Y0038310D01*
X0198663Y0036834D01*
X0201124Y0035604D01*
X0202846Y0034619D01*
X0205553Y0031913D01*
X0207029Y0029452D01*
X0209982Y0025023D01*
X0211951Y0023546D01*
X0213673Y0023054D01*
X0216134Y0023546D01*
X0217118Y0023793D01*
X0219579Y0026991D01*
X0221055Y0030190D01*
X0221547Y0034373D01*
X0221793Y0038064D01*
X0221547Y0042247D01*
X0221055Y0047169D01*
X0274943Y0319560D02*
X0272010Y0322021D01*
X0269019Y0324411D01*
X0265972Y0326729D01*
X0262869Y0328973D01*
X0259715Y0331142D01*
X0256509Y0333235D01*
X0253253Y0335251D01*
X0249951Y0337188D01*
X0246603Y0339045D01*
X0243211Y0340822D01*
X0239778Y0342517D01*
X0236306Y0344129D01*
X0232795Y0345657D01*
X0229250Y0347102D01*
X0225670Y0348460D01*
X0222059Y0349733D01*
X0218419Y0350919D01*
X0214751Y0352017D01*
X0211058Y0353027D01*
X0207342Y0353949D01*
X0203605Y0354781D01*
X0199849Y0355523D01*
X0196076Y0356176D01*
X0192289Y0356737D01*
X0188489Y0357208D01*
X0184679Y0357588D01*
X0180862Y0357877D01*
X0177038Y0358073D01*
X0173211Y0358179D01*
X0169382Y0358192D01*
X0163956Y0336046D02*
X0163959Y0336282D01*
X0163968Y0336517D01*
X0163982Y0336753D01*
X0164002Y0336988D01*
X0164028Y0337222D01*
X0164060Y0337456D01*
X0164097Y0337689D01*
X0164141Y0337921D01*
X0164189Y0338151D01*
X0164244Y0338381D01*
X0164304Y0338609D01*
X0164370Y0338835D01*
X0164441Y0339060D01*
X0164518Y0339283D01*
X0164600Y0339504D01*
X0164687Y0339723D01*
X0164780Y0339940D01*
X0164879Y0340154D01*
X0164982Y0340366D01*
X0165091Y0340576D01*
X0165204Y0340782D01*
X0165323Y0340986D01*
X0165447Y0341187D01*
X0165575Y0341384D01*
X0165709Y0341579D01*
X0165847Y0341770D01*
X0165990Y0341958D01*
X0166137Y0342142D01*
X0166289Y0342322D01*
X0166445Y0342499D01*
X0166606Y0342672D01*
X0166770Y0342841D01*
X0166939Y0343005D01*
X0167112Y0343166D01*
X0167289Y0343322D01*
X0167469Y0343474D01*
X0167653Y0343621D01*
X0167841Y0343764D01*
X0168032Y0343902D01*
X0168227Y0344036D01*
X0168424Y0344164D01*
X0168625Y0344288D01*
X0168829Y0344407D01*
X0169035Y0344520D01*
X0169245Y0344629D01*
X0169457Y0344732D01*
X0169671Y0344831D01*
X0169888Y0344924D01*
X0170107Y0345011D01*
X0170328Y0345093D01*
X0170551Y0345170D01*
X0170776Y0345241D01*
X0171002Y0345307D01*
X0171230Y0345367D01*
X0171460Y0345422D01*
X0171690Y0345470D01*
X0171922Y0345514D01*
X0172155Y0345551D01*
X0172389Y0345583D01*
X0172623Y0345609D01*
X0172858Y0345629D01*
X0173094Y0345643D01*
X0173329Y0345652D01*
X0173565Y0345655D01*
X0173801Y0345652D01*
X0174036Y0345643D01*
X0174272Y0345629D01*
X0174507Y0345609D01*
X0174741Y0345583D01*
X0174975Y0345551D01*
X0175208Y0345514D01*
X0175440Y0345470D01*
X0175670Y0345422D01*
X0175900Y0345367D01*
X0176128Y0345307D01*
X0176354Y0345241D01*
X0176579Y0345170D01*
X0176802Y0345093D01*
X0177023Y0345011D01*
X0177242Y0344924D01*
X0177459Y0344831D01*
X0177673Y0344732D01*
X0177885Y0344629D01*
X0178095Y0344520D01*
X0178301Y0344407D01*
X0178505Y0344288D01*
X0178706Y0344164D01*
X0178903Y0344036D01*
X0179098Y0343902D01*
X0179289Y0343764D01*
X0179477Y0343621D01*
X0179661Y0343474D01*
X0179841Y0343322D01*
X0180018Y0343166D01*
X0180191Y0343005D01*
X0180360Y0342841D01*
X0180524Y0342672D01*
X0180685Y0342499D01*
X0180841Y0342322D01*
X0180993Y0342142D01*
X0181140Y0341958D01*
X0181283Y0341770D01*
X0181421Y0341579D01*
X0181555Y0341384D01*
X0181683Y0341187D01*
X0181807Y0340986D01*
X0181926Y0340782D01*
X0182039Y0340576D01*
X0182148Y0340366D01*
X0182251Y0340154D01*
X0182350Y0339940D01*
X0182443Y0339723D01*
X0182530Y0339504D01*
X0182612Y0339283D01*
X0182689Y0339060D01*
X0182760Y0338835D01*
X0182826Y0338609D01*
X0182886Y0338381D01*
X0182941Y0338151D01*
X0182989Y0337921D01*
X0183033Y0337689D01*
X0183070Y0337456D01*
X0183102Y0337222D01*
X0183128Y0336988D01*
X0183148Y0336753D01*
X0183162Y0336517D01*
X0183171Y0336282D01*
X0183174Y0336046D01*
X0183171Y0335810D01*
X0183162Y0335575D01*
X0183148Y0335339D01*
X0183128Y0335104D01*
X0183102Y0334870D01*
X0183070Y0334636D01*
X0183033Y0334403D01*
X0182989Y0334171D01*
X0182941Y0333941D01*
X0182886Y0333711D01*
X0182826Y0333483D01*
X0182760Y0333257D01*
X0182689Y0333032D01*
X0182612Y0332809D01*
X0182530Y0332588D01*
X0182443Y0332369D01*
X0182350Y0332152D01*
X0182251Y0331938D01*
X0182148Y0331726D01*
X0182039Y0331516D01*
X0181926Y0331310D01*
X0181807Y0331106D01*
X0181683Y0330905D01*
X0181555Y0330708D01*
X0181421Y0330513D01*
X0181283Y0330322D01*
X0181140Y0330134D01*
X0180993Y0329950D01*
X0180841Y0329770D01*
X0180685Y0329593D01*
X0180524Y0329420D01*
X0180360Y0329251D01*
X0180191Y0329087D01*
X0180018Y0328926D01*
X0179841Y0328770D01*
X0179661Y0328618D01*
X0179477Y0328471D01*
X0179289Y0328328D01*
X0179098Y0328190D01*
X0178903Y0328056D01*
X0178706Y0327928D01*
X0178505Y0327804D01*
X0178301Y0327685D01*
X0178095Y0327572D01*
X0177885Y0327463D01*
X0177673Y0327360D01*
X0177459Y0327261D01*
X0177242Y0327168D01*
X0177023Y0327081D01*
X0176802Y0326999D01*
X0176579Y0326922D01*
X0176354Y0326851D01*
X0176128Y0326785D01*
X0175900Y0326725D01*
X0175670Y0326670D01*
X0175440Y0326622D01*
X0175208Y0326578D01*
X0174975Y0326541D01*
X0174741Y0326509D01*
X0174507Y0326483D01*
X0174272Y0326463D01*
X0174036Y0326449D01*
X0173801Y0326440D01*
X0173565Y0326437D01*
X0173329Y0326440D01*
X0173094Y0326449D01*
X0172858Y0326463D01*
X0172623Y0326483D01*
X0172389Y0326509D01*
X0172155Y0326541D01*
X0171922Y0326578D01*
X0171690Y0326622D01*
X0171460Y0326670D01*
X0171230Y0326725D01*
X0171002Y0326785D01*
X0170776Y0326851D01*
X0170551Y0326922D01*
X0170328Y0326999D01*
X0170107Y0327081D01*
X0169888Y0327168D01*
X0169671Y0327261D01*
X0169457Y0327360D01*
X0169245Y0327463D01*
X0169035Y0327572D01*
X0168829Y0327685D01*
X0168625Y0327804D01*
X0168424Y0327928D01*
X0168227Y0328056D01*
X0168032Y0328190D01*
X0167841Y0328328D01*
X0167653Y0328471D01*
X0167469Y0328618D01*
X0167289Y0328770D01*
X0167112Y0328926D01*
X0166939Y0329087D01*
X0166770Y0329251D01*
X0166606Y0329420D01*
X0166445Y0329593D01*
X0166289Y0329770D01*
X0166137Y0329950D01*
X0165990Y0330134D01*
X0165847Y0330322D01*
X0165709Y0330513D01*
X0165575Y0330708D01*
X0165447Y0330905D01*
X0165323Y0331106D01*
X0165204Y0331310D01*
X0165091Y0331516D01*
X0164982Y0331726D01*
X0164879Y0331938D01*
X0164780Y0332152D01*
X0164687Y0332369D01*
X0164600Y0332588D01*
X0164518Y0332809D01*
X0164441Y0333032D01*
X0164370Y0333257D01*
X0164304Y0333483D01*
X0164244Y0333711D01*
X0164189Y0333941D01*
X0164141Y0334171D01*
X0164097Y0334403D01*
X0164060Y0334636D01*
X0164028Y0334870D01*
X0164002Y0335104D01*
X0163982Y0335339D01*
X0163968Y0335575D01*
X0163959Y0335810D01*
X0163956Y0336046D01*
X0190543Y0041510D02*
X0187044Y0041101D01*
X0183537Y0040769D01*
X0180023Y0040515D01*
X0176504Y0040339D01*
X0172983Y0040241D01*
X0169460Y0040221D01*
X0165937Y0040280D01*
X0220809Y0047169D02*
X0224504Y0048447D01*
X0228165Y0049814D01*
X0231792Y0051272D01*
X0235383Y0052817D01*
X0238934Y0054451D01*
X0242445Y0056170D01*
X0245912Y0057975D01*
X0249334Y0059865D01*
X0252708Y0061837D01*
X0256034Y0063892D01*
X0259308Y0066028D01*
X0262528Y0068243D01*
X0265694Y0070536D01*
X0268802Y0072907D01*
X0271852Y0075352D01*
X0274840Y0077872D01*
X0277766Y0080464D01*
X0280628Y0083127D01*
X0283423Y0085859D01*
X0286151Y0088659D01*
X0288809Y0091525D01*
X0291397Y0094455D01*
X0293912Y0097447D01*
X0296352Y0100501D01*
X0298718Y0103613D01*
X0301006Y0106782D01*
X0303216Y0110006D01*
X0305346Y0113283D01*
X0307396Y0116612D01*
X0309363Y0119990D01*
X0311247Y0123415D01*
X0313047Y0126885D01*
X0314761Y0130398D01*
X0316388Y0133952D01*
X0317928Y0137545D01*
X0319379Y0141174D01*
X0320742Y0144838D01*
X0322014Y0148534D01*
X0323195Y0152261D01*
X0324284Y0156015D01*
X0325281Y0159794D01*
X0326185Y0163597D01*
X0326996Y0167421D01*
X0327713Y0171264D01*
X0328336Y0175123D01*
X0328864Y0178996D01*
X0329297Y0182881D01*
X0329634Y0186775D01*
X0329877Y0190677D01*
X0330023Y0194583D01*
X0330074Y0198491D01*
X0330029Y0202400D01*
X0329888Y0206306D01*
X0329652Y0210208D01*
X0329320Y0214103D01*
X0328893Y0217989D01*
X0328371Y0221863D01*
X0327754Y0225723D01*
X0327043Y0229566D01*
X0326238Y0233391D01*
X0325339Y0237196D01*
X0324348Y0240977D01*
X0323264Y0244732D01*
X0322088Y0248460D01*
X0320822Y0252158D01*
X0319465Y0255824D01*
X0318019Y0259456D01*
X0316485Y0263051D01*
X0314863Y0266608D01*
X0313154Y0270123D01*
X0311360Y0273596D01*
X0309481Y0277024D01*
X0307518Y0280405D01*
X0305474Y0283736D01*
X0303349Y0287017D01*
X0301143Y0290244D01*
X0298860Y0293417D01*
X0296499Y0296533D01*
X0294063Y0299590D01*
X0291553Y0302586D01*
X0288970Y0305520D01*
X0286316Y0308390D01*
X0283592Y0311194D01*
X0280801Y0313930D01*
X0277943Y0316597D01*
X0275021Y0319194D01*
X0272036Y0321718D01*
X0268991Y0324168D01*
X0265886Y0326543D01*
X0262724Y0328841D01*
X0259506Y0331061D01*
X0256236Y0333201D01*
X0252913Y0335261D01*
X0249542Y0337239D01*
X0246123Y0339134D01*
X0242658Y0340944D01*
X0239150Y0342669D01*
X0235601Y0344307D01*
X0232013Y0345858D01*
X0228388Y0347321D01*
X0224729Y0348694D01*
X0221036Y0349978D01*
X0217314Y0351170D01*
X0213563Y0352271D01*
X0209787Y0353280D01*
X0205987Y0354196D01*
X0202165Y0355019D01*
X0198325Y0355748D01*
X0194468Y0356383D01*
X0190596Y0356922D01*
X0186713Y0357367D01*
X0182819Y0357717D01*
X0178919Y0357971D01*
X0175013Y0358130D01*
X0171105Y0358193D01*
X0170120Y0357947D02*
X0166250Y0357890D01*
X0162382Y0357740D01*
X0158519Y0357496D01*
X0154663Y0357157D01*
X0150817Y0356725D01*
X0146982Y0356199D01*
X0143161Y0355580D01*
X0139356Y0354868D01*
X0135570Y0354064D01*
X0131805Y0353167D01*
X0128062Y0352180D01*
X0124345Y0351101D01*
X0120655Y0349933D01*
X0116994Y0348674D01*
X0113366Y0347327D01*
X0109771Y0345892D01*
X0106212Y0344370D01*
X0102691Y0342762D01*
X0099211Y0341069D01*
X0095772Y0339291D01*
X0092378Y0337430D01*
X0089031Y0335487D01*
X0085731Y0333463D01*
X0082482Y0331359D01*
X0079285Y0329177D01*
X0076143Y0326918D01*
X0073056Y0324583D01*
X0070027Y0322173D01*
X0067057Y0319690D01*
X0064149Y0317136D01*
X0061304Y0314512D01*
X0058523Y0311819D01*
X0055809Y0309059D01*
X0053163Y0306234D01*
X0050587Y0303346D01*
X0048081Y0300395D01*
X0045649Y0297384D01*
X0043290Y0294316D01*
X0041007Y0291190D01*
X0038800Y0288010D01*
X0036672Y0284777D01*
X0034623Y0281493D01*
X0032654Y0278161D01*
X0030767Y0274781D01*
X0028963Y0271356D01*
X0027243Y0267889D01*
X0025608Y0264380D01*
X0024059Y0260833D01*
X0022597Y0257250D01*
X0021222Y0253631D01*
X0019936Y0249980D01*
X0018739Y0246300D01*
X0017632Y0242591D01*
X0016616Y0238856D01*
X0015691Y0235097D01*
X0014858Y0231317D01*
X0014117Y0227518D01*
X0013468Y0223702D01*
X0012913Y0219871D01*
X0012452Y0216028D01*
X0012084Y0212175D01*
X0011810Y0208314D01*
X0011630Y0204448D01*
X0011544Y0200578D01*
X0011552Y0196708D01*
X0011655Y0192838D01*
X0011901Y0193083D02*
X0012085Y0189214D01*
X0012364Y0185351D01*
X0012736Y0181495D01*
X0013202Y0177650D01*
X0013761Y0173817D01*
X0014414Y0169999D01*
X0015159Y0166197D01*
X0015997Y0162416D01*
X0016926Y0158655D01*
X0017947Y0154919D01*
X0019058Y0151208D01*
X0020260Y0147525D01*
X0021550Y0143873D01*
X0022930Y0140253D01*
X0024397Y0136668D01*
X0025951Y0133120D01*
X0027590Y0129611D01*
X0029315Y0126143D01*
X0031124Y0122717D01*
X0033015Y0119337D01*
X0034989Y0116004D01*
X0037043Y0112719D01*
X0039176Y0109486D01*
X0041387Y0106306D01*
X0043675Y0103180D01*
X0046039Y0100111D01*
X0048476Y0097101D01*
X0050986Y0094151D01*
X0053567Y0091262D01*
X0056218Y0088438D01*
X0058937Y0085679D01*
X0061722Y0082987D01*
X0064572Y0080363D01*
X0067484Y0077810D01*
X0070459Y0075328D01*
X0073492Y0072919D01*
X0076584Y0070585D01*
X0079731Y0068327D01*
X0082932Y0066147D01*
X0086186Y0064044D01*
X0089490Y0062022D01*
X0092842Y0060081D01*
X0096240Y0058222D01*
X0099682Y0056446D01*
X0103167Y0054754D01*
X0106692Y0053148D01*
X0110255Y0051629D01*
X0113854Y0050196D01*
X0117486Y0048851D01*
X0121151Y0047596D01*
X0124845Y0046429D01*
D11*
X0129559Y0242897D03*
X0129559Y0252897D03*
X0139559Y0252897D03*
X0139559Y0242897D03*
X0119559Y0242897D03*
X0119559Y0252897D03*
D12*
X0143254Y0161444D03*
X0143254Y0148944D03*
X0055254Y0148444D03*
X0055254Y0160944D03*
D13*
X0089412Y0154944D02*
X0109096Y0154944D01*
D14*
X0113129Y0272127D02*
X0119129Y0272127D01*
X0119129Y0289927D02*
X0113129Y0289927D01*
X0138729Y0289927D02*
X0144729Y0289927D01*
X0144729Y0272127D02*
X0138729Y0272127D01*
X0205671Y0284449D02*
X0205671Y0290449D01*
X0215671Y0290449D02*
X0215671Y0284449D01*
X0259018Y0204032D02*
X0259018Y0198032D01*
X0269018Y0198032D02*
X0269018Y0204032D01*
D15*
X0269018Y0201032D02*
X0269601Y0200870D01*
X0281525Y0188945D01*
X0308355Y0188945D01*
X0234822Y0241611D02*
X0234822Y0308189D01*
X0221903Y0243599D02*
X0188118Y0243599D01*
X0142407Y0289309D01*
X0141729Y0289927D01*
X0141289Y0289923D01*
X0116689Y0289923D01*
X0116129Y0289927D01*
X0116129Y0272127D02*
X0116571Y0271422D01*
X0119552Y0268441D01*
X0122533Y0271422D01*
X0141414Y0271422D01*
X0141729Y0272127D01*
X0141414Y0257511D02*
X0128496Y0257511D01*
X0123527Y0252542D01*
X0123527Y0246580D01*
X0120546Y0243599D01*
X0119559Y0242897D01*
X0119552Y0248567D02*
X0099678Y0228693D01*
X0099678Y0155159D01*
X0099254Y0154944D01*
X0098685Y0154166D01*
X0081792Y0138267D02*
X0132470Y0138267D01*
X0142407Y0148204D01*
X0143254Y0148944D01*
X0143089Y0149523D01*
X0143089Y0160923D01*
X0143254Y0161444D01*
X0142407Y0162115D01*
X0142407Y0229687D01*
X0132470Y0239624D01*
X0135451Y0242605D01*
X0135451Y0248567D01*
X0139426Y0252542D01*
X0139559Y0252897D01*
X0141414Y0257511D02*
X0160294Y0238630D01*
X0119552Y0248567D02*
X0119552Y0252542D01*
X0119559Y0252897D01*
X0119552Y0253536D01*
X0119552Y0268441D01*
X0166256Y0190933D02*
X0203023Y0227700D01*
X0251714Y0096531D02*
X0095703Y0096531D01*
X0095703Y0090569D02*
X0250721Y0090569D01*
X0081792Y0138267D02*
X0071855Y0148204D01*
X0055955Y0148204D01*
X0055254Y0148444D01*
X0055489Y0148923D01*
X0055489Y0160923D01*
X0055254Y0160944D01*
X0055955Y0161122D01*
D16*
X0095703Y0090569D03*
X0095703Y0096531D03*
X0166256Y0190933D03*
X0203023Y0227700D03*
X0221903Y0243599D03*
X0234822Y0241611D03*
X0234822Y0308189D03*
X0160294Y0238630D03*
X0251714Y0096531D03*
X0250721Y0090569D03*
X0308355Y0188945D03*
M02*
