%
M48
M72
T01C0.01378
T02C0.04000
%
T01
X98197Y85352
X100756Y88807
X80923Y88935
X77980Y99171
X27183Y197183
X25008Y213305
X36652Y218807
X51878Y204378
X45864Y200894
X48807Y197183
X57252Y195648
X70943Y260520
X96789Y306839
X99988Y303384
X118896Y286219
X154240Y261799
X154112Y239024
X199535Y229043
X199604Y253984
X214122Y261543
X228640Y271701
X251228Y296602
X242911Y305048
X237793Y309781
X238561Y315539
X256730Y311957
X246494Y233906
X251356Y239152
X226278Y209083
X238561Y186947
X190195Y186947
X190195Y179270
X184565Y169161
X171514Y172232
X171514Y179014
X180598Y187970
X184437Y108384
X188531Y84329
X165500Y80362
X224358Y83305
X237409Y83433
X238561Y90598
X242911Y96868
X314309Y196159
X314181Y201022
X294604Y204732
X88728Y128856
T02
X209033Y285972
X199033Y285972
X128906Y286219
X138906Y286219
X139230Y254063
X129230Y254063
X119230Y254063
X119230Y244063
X129230Y244063
X139230Y244063
M30
